<svg width="181" height="51" viewBox="0 0 181 51" fill="none" xmlns="http://www.w3.org/2000/svg">
<path d="M71.6157 38.2499C70.5222 38.2499 69.8843 37.7179 69.7021 36.6539L69.5142 35.6117C69.4116 35.0145 69.5085 34.5586 69.8046 34.2437C70.1121 33.918 70.5792 33.7552 71.2056 33.7552H82.1917C83.4219 33.7552 84.3161 33.6032 84.8742 33.2992C85.4437 32.9843 85.7285 32.4578 85.7285 31.7195C85.7285 30.9487 85.3982 30.3624 84.7375 29.9607C84.0769 29.5482 83.0973 29.2333 81.7988 29.0162L77.2881 28.2508C74.6797 27.8165 72.7263 27.0674 71.4277 26.0034C70.1292 24.9395 69.48 23.387 69.48 21.3459C69.48 19.294 70.2488 17.7089 71.7865 16.5906C73.3243 15.4615 75.5283 14.897 78.3987 14.897H87.2662C88.3597 14.897 88.9975 15.4344 89.1798 16.5092L89.3677 17.5352C89.4475 18.1323 89.3393 18.5937 89.0431 18.9194C88.7469 19.2451 88.2913 19.408 87.6762 19.408H78.6208C77.3907 19.408 76.4908 19.5491 75.9213 19.8314C75.3632 20.1137 75.0841 20.5859 75.0841 21.2482C75.0841 21.9647 75.4087 22.5076 76.058 22.8767C76.7072 23.2458 77.6868 23.5444 78.9967 23.7724L83.6611 24.5704C84.971 24.7983 86.0816 25.0861 86.9928 25.4335C87.9154 25.77 88.7071 26.2152 89.3677 26.7688C90.0284 27.3117 90.5182 27.9848 90.8371 28.7882C91.156 29.5807 91.3155 30.5199 91.3155 31.6055C91.3155 33.7226 90.5466 35.362 89.0089 36.5236C87.4712 37.6745 85.2672 38.2499 82.3968 38.2499H71.6157Z" fill="#DAD2C1"/>
<path d="M96.8854 38.2499C96.3045 38.2499 95.8546 38.1033 95.5357 37.8102C95.2281 37.5062 95.0744 37.0773 95.0744 36.5236V16.6395C95.0744 16.0858 95.2281 15.657 95.5357 15.353C95.8546 15.049 96.3045 14.897 96.8854 14.897H98.7136C99.2945 14.897 99.7387 15.049 100.046 15.353C100.365 15.657 100.525 16.0858 100.525 16.6395V36.5236C100.525 37.0773 100.365 37.5062 100.046 37.8102C99.7387 38.1033 99.2945 38.2499 98.7136 38.2499H96.8854Z" fill="#DAD2C1"/>
<path d="M113.288 38.2499C108.299 38.2499 105.804 35.9157 105.804 31.2473V16.6395C105.804 16.0858 105.958 15.657 106.265 15.353C106.584 15.049 107.034 14.897 107.615 14.897H123.368C124.462 14.897 125.1 15.4344 125.282 16.5092L125.453 17.5352C125.532 18.1323 125.424 18.5937 125.128 18.9194C124.843 19.2451 124.393 19.408 123.778 19.408H111.255V24.2772H121.045C121.626 24.2772 122.075 24.4292 122.394 24.7332C122.713 25.0263 122.873 25.4498 122.873 26.0034V26.8828C122.873 27.4365 122.713 27.8654 122.394 28.1694C122.075 28.4625 121.626 28.6091 121.045 28.6091H111.255V30.7424C111.255 32.7509 112.411 33.7552 114.723 33.7552H124.137C124.752 33.7552 125.202 33.918 125.487 34.2437C125.783 34.5586 125.891 35.0145 125.812 35.6117L125.641 36.6539C125.458 37.7179 124.815 38.2499 123.71 38.2499H113.288Z" fill="#DAD2C1"/>
<path d="M146.058 31.0193L150.5 36.1165C150.99 36.6919 151.127 37.1913 150.91 37.6147C150.705 38.0382 150.216 38.2499 149.441 38.2499H146.895C146.018 38.2499 145.284 37.9079 144.691 37.2239L139.719 31.2798C139.138 30.6176 138.848 29.863 138.848 29.0162V28.4462C138.848 27.5994 139.338 27.176 140.317 27.176H140.693C142.698 27.176 144.139 26.8611 145.016 26.2314C145.893 25.5909 146.331 24.6138 146.331 23.3001C146.331 21.9756 145.893 20.9985 145.016 20.3688C144.139 19.7282 142.698 19.408 140.693 19.408H135.448V36.5236C135.448 37.0773 135.288 37.5062 134.969 37.8102C134.662 38.1033 134.218 38.2499 133.637 38.2499H131.809C131.228 38.2499 130.778 38.1033 130.459 37.8102C130.151 37.5062 129.998 37.0773 129.998 36.5236V16.6395C129.998 16.0858 130.151 15.657 130.459 15.353C130.778 15.049 131.228 14.897 131.809 14.897H141.052C144.629 14.897 147.334 15.6461 149.168 17.1443C151.013 18.6317 151.936 20.6836 151.936 23.3001C151.936 25.0915 151.463 26.6331 150.517 27.9251C149.572 29.2062 148.199 30.1887 146.4 30.8727L146.058 31.0193Z" fill="#DAD2C1"/>
<path d="M180.845 36.2468C181.072 36.8656 181.05 37.3542 180.776 37.7125C180.514 38.0707 180.047 38.2499 179.375 38.2499H177.154C176.095 38.2499 175.411 37.7722 175.104 36.8168L173.703 32.7455H161.384L159.983 36.8168C159.675 37.7722 158.986 38.2499 157.916 38.2499H155.814C155.142 38.2499 154.669 38.0707 154.396 37.7125C154.134 37.3542 154.117 36.8656 154.345 36.2468L160.478 19.5708C160.831 18.5937 161.259 17.774 161.76 17.1118C162.261 16.4386 162.819 15.923 163.434 15.5647C164.061 15.2064 164.699 14.9513 165.348 14.7993C166.008 14.6473 166.737 14.5713 167.535 14.5713C168.344 14.5713 169.078 14.6473 169.739 14.7993C170.399 14.9513 171.049 15.2064 171.687 15.5647C172.324 15.923 172.9 16.4386 173.412 17.1118C173.925 17.7849 174.358 18.6046 174.711 19.5708L180.845 36.2468ZM162.956 28.2508H172.131L169.602 20.9388C169.272 19.9617 168.583 19.4731 167.535 19.4731C166.487 19.4731 165.798 19.9617 165.467 20.9388L162.956 28.2508Z" fill="#DAD2C1"/>
<path d="M19.095 1.89465C17.6094 2.82289 16.3767 4.1312 15.2136 6.01274C13.7343 8.40655 11.8784 10.5855 9.69845 12.4904C8.46066 13.5731 7.12374 14.556 5.72873 15.4091C2.19933 17.5328 0.0575322 21.3546 0 25.6573C0.0592411 29.8432 2.45509 33.7806 6.24082 35.9277C7.86198 36.926 9.24731 37.9904 10.4737 39.1808C11.9559 40.6355 13.8294 42.5952 15.1708 44.8477C17.2431 48.5851 21.2921 51 25.4845 51C25.9094 51 26.3389 50.9749 26.7536 50.9259C30.5804 50.5658 34.0671 48.1936 36.0716 44.5952C37.5384 42.2442 39.3857 40.1261 41.573 38.2936C42.6428 37.3323 43.8817 36.4343 45.4744 35.4667C47.251 34.3869 48.6444 32.9042 49.6127 31.0683C52.3298 26.2049 50.9325 19.5585 46.4974 16.2535L45.6339 15.653C42.8564 13.7304 40.2338 11.9138 38.198 9.29376C37.2068 8.13589 36.4139 7.04696 35.7754 5.96487C34.4675 3.74998 32.819 2.19324 30.7456 1.21087C29.1438 0.400013 27.3563 0 25.5631 0C23.2966 -0.00056839 21.0203 0.638767 19.095 1.89465ZM19.2682 40.9752C12.7534 38.3272 8.72439 32.3982 8.75401 25.4943C8.71927 18.7209 12.6417 12.8238 18.9896 10.1058C21.1684 9.17182 23.4321 8.6983 25.7198 8.6983C29.9264 8.6983 33.9463 10.3394 37.0468 13.3258C40.3033 16.2684 42.2138 20.6064 42.2868 25.2265C42.3602 29.8363 40.5887 34.2268 37.4261 37.2719L37.4165 37.281C34.2585 40.5558 30.1093 42.2749 25.7779 42.2749C23.6201 42.2755 21.4174 41.8487 19.2682 40.9752Z" fill="url(#paint0_linear_3399_2765)"/>
<defs>
<linearGradient id="paint0_linear_3399_2765" x1="-1.275" y1="-7.18869e-07" x2="49.7427" y2="52.2577" gradientUnits="userSpaceOnUse">
<stop stop-color="#00D3A1"/>
<stop offset="0.549517" stop-color="#00D3A1"/>
<stop offset="1" stop-color="#009C8D"/>
</linearGradient>
</defs>
</svg>
